# xmcd CD database file
#
# Track frame offsets:
#	183
#	13908
#	36558
#	49158
#	88433
#	110733
#	142358
#	165408
#	180220
#	204783
#
# Disc length: 3145 seconds
#
# Revision: 0
# Processed by: cddbd v1.5.1PL0 Copyright (c) Steve Scherf et al.
# Submitted via: CDex 1.51
#
DISCID=8e0c470a
DTITLE=Emiliano Salvador - Ayer y Hoy
DYEAR=1992
DGENRE=Jazz
TTITLE0=Danza para cuatro
TTITLE1=Cha-cha-cha
TTITLE2=La vida es un sueño
TTITLE3=Una mañana de domingo
TTITLE4=Capullito de alelí
TTITLE5=Samba-conga
TTITLE6=Para luego es tarde (Danzón)
TTITLE7=Allí
TTITLE8=Transcurso de una travesía
TTITLE9=5ta. avenida
EXTD=YEAR: 1992
EXTT0=
EXTT1=
EXTT2=
EXTT3=
EXTT4=
EXTT5=
EXTT6=
EXTT7=
EXTT8=
EXTT9=
PLAYORDER=
